<svg xmlns="http://www.w3.org/2000/svg" width="26.766" height="28.052" viewBox="0 0 26.766 28.052"><defs><style>.a{fill:#fff;}</style></defs><path class="a" d="M26.766,19.724V1.315A1.375,1.375,0,0,0,25.332,0H5.736A5.515,5.515,0,0,0,0,5.26V22.792a5.515,5.515,0,0,0,5.736,5.26h19.6a1.375,1.375,0,0,0,1.434-1.315V25.86a1.287,1.287,0,0,0-.532-1.025,11.219,11.219,0,0,1,0-4.093A1.268,1.268,0,0,0,26.766,19.724ZM7.648,7.342a.346.346,0,0,1,.358-.329H20.672a.346.346,0,0,1,.358.329v1.1a.346.346,0,0,1-.358.329H8.006a.346.346,0,0,1-.358-.329Zm0,3.506a.346.346,0,0,1,.358-.329H20.672a.346.346,0,0,1,.358.329v1.1a.346.346,0,0,1-.358.329H8.006a.346.346,0,0,1-.358-.329Zm15.14,13.7H5.736a1.76,1.76,0,1,1,0-3.506H22.787A18.094,18.094,0,0,0,22.787,24.545Z"/></svg>