<svg xmlns="http://www.w3.org/2000/svg" width="26.766" height="28.914" viewBox="0 0 26.766 28.914"><defs><style>.a{fill:#fff;}</style></defs><g transform="translate(-1.176)"><g transform="translate(1.176)"><path class="a" d="M1.176,7.4h7.4V0h-7.4ZM2.466,1.29H7.288V6.112H2.466Z" transform="translate(-1.176)"/><path class="a" d="M1.176,15.5h7.4V8.1h-7.4Zm1.29-6.112H7.288v4.821H2.466Z" transform="translate(-1.176 -0.913)"/><path class="a" d="M1.176,23.573h7.4v-7.4h-7.4Zm1.29-6.113H7.288v4.822H2.466Z" transform="translate(-1.176 -1.822)"/><path class="a" d="M1.176,31.646h7.4v-7.4h-7.4Zm1.29-6.113H7.288v4.822H2.466Z" transform="translate(-1.176 -2.732)"/><rect class="a" width="19.423" height="1.45" transform="translate(6.858 1.488)"/><rect class="a" width="13.943" height="1.451" transform="translate(7.841 4.067)"/><rect class="a" width="19.423" height="1.45" transform="translate(6.858 8.319)"/><rect class="a" width="13.943" height="1.45" transform="translate(7.841 10.664)"/><rect class="a" width="19.425" height="1.451" transform="translate(7.341 15.867)"/><rect class="a" width="13.944" height="1.451" transform="translate(8.244 18.213)"/><rect class="a" width="19.425" height="1.45" transform="translate(7.341 22.614)"/><rect class="a" width="13.944" height="1.451" transform="translate(8.244 25.193)"/></g></g></svg>