<svg xmlns="http://www.w3.org/2000/svg" width="44.923" height="44.923" viewBox="0 0 44.923 44.923"><defs><style>.a{fill:none;}</style></defs><path class="a" d="M0,0H44.923V44.923H0Z"/><path d="M12.231,31.949a3.744,3.744,0,1,0,3.744,3.744A3.739,3.739,0,0,0,12.231,31.949ZM1,2V5.744H4.744l6.739,14.207L8.955,24.537a3.619,3.619,0,0,0-.468,1.8,3.755,3.755,0,0,0,3.744,3.744H34.693V26.333H13.017a.463.463,0,0,1-.468-.468l.056-.225L14.29,22.59H28.235a3.726,3.726,0,0,0,3.276-1.928l6.7-12.148a1.829,1.829,0,0,0,.225-.9,1.877,1.877,0,0,0-1.872-1.872H8.88L7.121,2H1ZM30.949,31.949a3.744,3.744,0,1,0,3.744,3.744A3.739,3.739,0,0,0,30.949,31.949Z" transform="translate(0.872 1.744)"/></svg>