<svg xmlns="http://www.w3.org/2000/svg" width="33.642" height="33.642" viewBox="0 0 33.642 33.642"><path d="M11.593,29.914a3.364,3.364,0,1,0,3.364,3.364A3.36,3.36,0,0,0,11.593,29.914ZM1.5,3V6.364H4.864L10.92,19.131,8.649,23.253a3.252,3.252,0,0,0-.421,1.615,3.374,3.374,0,0,0,3.364,3.364H31.778V24.867H12.3a.416.416,0,0,1-.421-.421l.05-.2L13.443,21.5H25.975a3.348,3.348,0,0,0,2.944-1.733L34.94,8.854a1.643,1.643,0,0,0,.2-.807A1.687,1.687,0,0,0,33.46,6.364H8.582L7,3ZM28.414,29.914a3.364,3.364,0,1,0,3.364,3.364A3.36,3.36,0,0,0,28.414,29.914Z" transform="translate(-1.5 -3)"/></svg>